:SAMPLES-PER-SECOND 30
:FULLY-SPECIFIED
:DEGREES
885
root  -37.1647 38.9292 0.937543 116.053 -85.7872 -107.637
RightUpLeg  -36.4187 -11.0848 3.39687
RightLeg  30.3034 -4.99263 -3.41172
RightFoot  2.2654 -0.364909 3.16572
RightToes  0.00048216 0.542163 -0.142577
Spine  63.6452 -3.07011 4.4205
Spine1  12.7792 1.22284 -4.45337
HEad  -33.7777 -4.31016 -2.36475
LeftShoulder1  10.9991 -21.3616 -38.002
LeftArm  -17.4094 -53.8691 -19.7484
LeftForeArm  24.7515 -20.5763 -3.86445
LeftHand  -0.25398 0.0180481 5.50724
RightShoulder  4.685 13.5225 21.1749
RightArm  -4.78524 58.5986 38.6668
RightForeArm  -21.8598 20.813 6.23386
RightHand  -10.8085 23.5452 -41.8091
LeftUpLeg  -39.332 24.4737 -12.2344
LeftLeg  19.8615 -5.10702 -1.70315
LeftFoot  7.93233 -2.65273 15.2399
LeftToes  1.06245e-005 4.65856e-005 -8.18504e-006
886
root  -36.598 38.9746 0.811287 113.765 -85.7489 -108.215
RightUpLeg  -33.3553 -8.65757 1.99492
RightLeg  38.4548 -7.90723 -6.94151
RightFoot  -0.169681 -0.16389 1.65328
RightToes  0.00048216 0.542163 -0.142577
Spine  61.7745 -2.8163 4.53201
Spine1  13.1159 1.30416 -4.19838
HEad  -34.0512 -4.85252 -2.02976
LeftShoulder1  11.4743 -20.983 -40.5121
LeftArm  -15.3217 -47.6252 -19.4267
LeftForeArm  24.1064 -17.9999 -4.54165
LeftHand  -0.25398 0.0180481 5.50724
RightShoulder  5.01383 13.5387 23.1937
RightArm  -1.64308 53.4915 39.3157
RightForeArm  -21.9939 21.219 6.2069
RightHand  -10.4517 23.0191 -41.2447
LeftUpLeg  -36.1669 25.5914 -11.1657
LeftLeg  18.0888 -5.75968 -1.86311
LeftFoot  9.51209 -2.82831 14.9628
LeftToes  1.06245e-005 4.65856e-005 -8.18504e-006
887
root  -36.0437 38.9709 0.617728 110.91 -85.7692 -107.653
RightUpLeg  -30.1886 -6.91709 1.34413
RightLeg  45.8916 -8.89025 -9.98118
RightFoot  -2.4189 -0.0243508 0.108918
RightToes  0.00048216 0.542163 -0.142577
Spine  59.6294 -2.6766 4.82226
Spine1  12.7444 1.49182 -4.47062
HEad  -34.171 -5.84234 -1.39028
LeftShoulder1  11.6681 -20.5517 -42.064
LeftArm  -14.2994 -40.5264 -19.3647
LeftForeArm  23.1746 -15.7979 -5.25495
LeftHand  -0.25398 0.0180481 5.50724
RightShoulder  5.38147 13.4149 25.7021
RightArm  1.06471 47.9044 39.2476
RightForeArm  -22.783 22.0177 6.15278
RightHand  -10.1966 22.5701 -40.9233
LeftUpLeg  -33.5221 25.8892 -9.69881
LeftLeg  16.5781 -5.70111 -2.19845
LeftFoot  10.9497 -2.93533 14.4758
LeftToes  1.06245e-005 4.65856e-005 -8.18504e-006
888
root  -35.4811 38.8963 0.386841 102.633 -85.8245 -101.539
RightUpLeg  -26.3076 -6.03972 1.07368
RightLeg  51.6233 -8.49325 -11.6646
RightFoot  -4.68098 -3.16396e-005 -0.519573
RightToes  0.00048216 0.542163 -0.142577
Spine  57.7052 -2.78088 5.36344
Spine1  11.8756 1.61251 -4.84305
HEad  -33.8182 -6.63969 -0.492337
LeftShoulder1  11.6417 -20.0842 -42.8599
LeftArm  -13.3291 -32.5558 -19.6447
LeftForeArm  21.0534 -14.6157 -5.61294
LeftHand  -0.25398 0.0180481 5.50724
RightShoulder  5.74622 13.1701 28.4506
RightArm  3.26034 41.988 38.4918
RightForeArm  -24.027 23.3568 6.17834
RightHand  -9.97408 22.0954 -40.7469
LeftUpLeg  -31.369 25.8943 -8.2844
LeftLeg  15.6574 -5.89165 -2.64454
LeftFoot  12.0886 -2.98835 13.9773
LeftToes  1.06245e-005 4.65856e-005 -8.18504e-006
889
root  -34.8898 38.7169 0.148142 87.3662 -86.1431 -88.8341
RightUpLeg  -21.2838 -5.74231 0.50284
RightLeg  55.5496 -7.23707 -11.5908
RightFoot  -6.77911 -0.0322024 -0.350863
RightToes  0.00048216 0.542163 -0.142577
Spine  55.8113 -2.91307 5.67626
Spine1  11.9489 1.45021 -4.62342
HEad  -33.515 -6.94877 0.314654
LeftShoulder1  11.4432 -19.5528 -43.1234
LeftArm  -12.9669 -24.9067 -20.1408
LeftForeArm  18.9582 -13.701 -5.76019
LeftHand  -0.25398 0.0180481 5.50724
RightShoulder  5.89729 12.8683 30.0426
RightArm  4.10273 36.5285 37.8247
RightForeArm  -24.3652 24.6859 6.40886
RightHand  -9.74529 21.6133 -40.5497
LeftUpLeg  -29.3888 26.03 -7.57601
LeftLeg  15.4519 -6.5863 -2.88384
LeftFoot  13.0725 -3.0893 13.8349
LeftToes  1.06245e-005 4.65856e-005 -8.18504e-006
890
root  -34.2669 38.4303 -0.101445 69.5706 -86.845 -73.4002
RightUpLeg  -16.1182 -5.3307 -0.589304
RightLeg  57.9824 -5.55099 -9.94584
RightFoot  -8.30622 -0.0612035 0.135116
RightToes  0.00048216 0.542163 -0.142577
Spine  53.5374 -2.61223 5.27787
Spine1  12.3361 1.16975 -3.92763
HEad  -33.0319 -7.10008 0.882775
LeftShoulder1  11.2482 -18.9874 -43.4826
LeftArm  -12.7309 -17.7262 -20.2526
LeftForeArm  17.9748 -12.2755 -5.96938
LeftHand  -0.25398 0.0180481 5.50724
RightShoulder  5.87975 12.5821 30.5854
RightArm  4.50074 31.3543 37.6887
RightForeArm  -23.5214 25.5578 6.58843
RightHand  -9.50724 21.2054 -40.2051
LeftUpLeg  -28.0388 26.1621 -7.85913
LeftLeg  15.7029 -7.04433 -2.76725
LeftFoot  13.9603 -3.20541 13.8261
LeftToes  1.06245e-005 4.65856e-005 -8.18504e-006
891
root  -33.6058 38.0845 -0.375906 46.8453 -87.9869 -51.7971
RightUpLeg  -12.1554 -4.50373 -2.0996
RightLeg  59.0589 -3.94621 -7.57752
RightFoot  -9.69084 -0.0938271 2.02988
RightToes  0.00048216 0.542163 -0.142577
Spine  50.1214 -1.72391 4.17588
Spine1  12.276 1.09792 -3.37236
HEad  -32.138 -7.72268 1.22445
LeftShoulder1  11.2091 -18.5002 -44.3414
LeftArm  -11.4389 -10.4681 -19.2272
LeftForeArm  17.8123 -10.9388 -6.28332
LeftHand  -0.25398 0.0180481 5.50724
RightShoulder  5.9201 12.3942 31.2796
RightArm  5.21416 26.2007 37.5621
RightForeArm  -22.1534 25.7709 6.5825
RightHand  -9.23921 20.8415 -39.6693
LeftUpLeg  -28.0156 25.8979 -9.00182
LeftLeg  15.7175 -6.77727 -2.52293
LeftFoot  14.8197 -3.24671 13.5138
LeftToes  1.06245e-005 4.65856e-005 -8.18504e-006
892
root  -32.8693 37.7392 -0.659607 -3.01868 -88.8943 -2.11772
RightUpLeg  -9.03814 -3.58277 -3.857
RightLeg  58.3472 -2.8107 -5.40613
RightFoot  -12.5838 -0.00442496 6.19428
RightToes  0.00048216 0.542163 -0.142577
Spine  45.6921 -0.730478 2.86837
Spine1  12.232 1.22632 -3.22305
HEad  -31.0466 -8.79572 1.38912
LeftShoulder1  11.3004 -18.1061 -45.5752
LeftArm  -9.01437 -3.00935 -17.1803
LeftForeArm  17.7777 -10.5806 -6.59131
LeftHand  -0.25398 0.0180481 5.50724
RightShoulder  6.10245 12.3268 32.5968
RightArm  6.39954 21.527 37.0632
RightForeArm  -21.4296 25.3449 6.45158
RightHand  -8.94819 20.4442 -39.0717
LeftUpLeg  -28.4743 24.5461 -10.0087
LeftLeg  14.7079 -5.22512 -2.45556
LeftFoot  16.2257 -3.34129 13.1457
LeftToes  1.06245e-005 4.65856e-005 -8.18504e-006
893
root  -32.0086 37.4341 -0.920779 -64.5416 -88.5491 58.8091
RightUpLeg  -5.6187 -2.95509 -5.16598
RightLeg  55.5879 -2.25119 -3.9727
RightFoot  -18.0188 0.478931 10.2901
RightToes  0.00048216 0.542163 -0.142577
Spine  41.8009 -0.21118 2.19221
Spine1  12.4088 1.39063 -3.39318
HEad  -30.022 -9.90795 1.45078
LeftShoulder1  11.3772 -17.7112 -46.7811
LeftArm  -6.32887 4.45413 -15.144
LeftForeArm  17.1504 -11.5384 -6.60569
LeftHand  -0.25398 0.0180481 5.50724
RightShoulder  6.26069 12.2183 33.8661
RightArm  7.79936 17.7474 36.6378
RightForeArm  -21.7193 24.62 6.29391
RightHand  -8.65312 19.9647 -38.5513
LeftUpLeg  -27.5852 21.1979 -9.07612
LeftLeg  12.4166 -0.996643 -2.73254
LeftFoot  18.5457 -3.53518 12.7652
LeftToes  1.06245e-005 4.65856e-005 -8.18504e-006
894
root  -30.9891 37.2158 -1.15209 -84.464 -88.3451 77.2654
RightUpLeg  -2.3348 -2.90801 -5.25362
RightLeg  51.7361 -2.3653 -3.58915
RightFoot  -24.2785 1.07911 11.0903
RightToes  0.00048216 0.542163 -0.142577
Spine  39.406 -0.233197 2.7065
Spine1  12.7136 1.6524 -3.79981
HEad  -29.3508 -10.8142 1.4157
LeftShoulder1  11.3649 -17.2713 -47.744
LeftArm  -4.35812 11.3934 -13.9337
LeftForeArm  15.9089 -13.2534 -6.18781
LeftHand  -0.25398 0.0180481 5.50724
RightShoulder  6.26077 11.9571 34.5329
RightArm  8.67217 14.8446 36.615
RightForeArm  -22.1435 23.9997 6.17198
RightHand  -8.28138 19.2781 -37.9797
LeftUpLeg  -25.0157 15.7312 -5.51933
LeftLeg  9.05651 6.26997 -3.64238
LeftFoot  20.5427 -3.20254 10.7491
LeftToes  1.06245e-005 4.65856e-005 -8.18504e-006
